<?xml version="1.0" encoding="UTF-8"?>
<svg id="Burger-menu" xmlns="http://www.w3.org/2000/svg" version="1.1" viewBox="0 0 512 512">
  <!-- Generator: Adobe Illustrator 29.1.0, SVG Export Plug-In . SVG Version: 2.1.0 Build 142)  -->
  <defs>
    <style>
      .st0 {
        fill: #353535;
      }
    </style>
  </defs>
  <path class="st0" d="M480,224H32c-17.7,0-32,14.3-32,32s14.3,32,32,32h448c17.7,0,32-14.3,32-32s-14.3-32-32-32Z"/>
  <path class="st0" d="M32,138.7h448c17.7,0,32-14.3,32-32s-14.3-32-32-32H32C14.3,74.7,0,89,0,106.7s14.3,32,32,32Z"/>
  <path class="st0" d="M480,373.3H32c-17.7,0-32,14.3-32,32s14.3,32,32,32h448c17.7,0,32-14.3,32-32s-14.3-32-32-32Z"/>
</svg>