<?xml version="1.0" encoding="UTF-8"?>
<svg id="Search" xmlns="http://www.w3.org/2000/svg" version="1.1" viewBox="0 0 512 512">
  <!-- Generator: Adobe Illustrator 29.1.0, SVG Export Plug-In . SVG Version: 2.1.0 Build 142)  -->
  <defs>
    <style>
      .st0 {
        fill: #353535;
      }
    </style>
  </defs>
  <path class="st0" d="M502.6,457.5h0s-99.1-99.2-99.1-99.2c74.2-99.1,53.9-239.5-45.2-313.7C259.3-29.5,118.8-9.2,44.7,89.8-29.4,188.9-9.2,329.4,89.9,403.5c79.6,59.6,188.9,59.6,268.5,0l99.1,99.1c12.5,12.5,32.7,12.5,45.1,0,12.5-12.5,12.5-32.7,0-45.1ZM225,384.4c-88.1,0-159.5-71.4-159.5-159.5S136.9,65.5,225,65.5s159.5,71.4,159.5,159.5c0,88-71.4,159.4-159.5,159.5Z"/>
</svg>