<?xml version="1.0" encoding="UTF-8"?>
<svg xmlns="http://www.w3.org/2000/svg" version="1.1" viewBox="0 0 630.9 248.2">
  <!-- Generator: Adobe Illustrator 29.1.0, SVG Export Plug-In . SVG Version: 2.1.0 Build 142)  -->
  <defs>
    <style>
      .st0 {
        isolation: isolate;
        opacity: .2;
      }

      .st1 {
        fill: #7c7c7c;
      }

      .st2 {
        fill: #efefef;
      }

      .st3 {
        fill: #c8db14;
      }

      .st4 {
        stroke: #d8e213;
        stroke-miterlimit: 10;
        stroke-width: .5px;
      }

      .st4, .st5 {
        fill: #353535;
      }

      .st6 {
        fill: #fff;
      }

      .st7 {
        fill: #b1cd0a;
      }

      .st8 {
        fill: #d8e213;
      }
    </style>
  </defs>
  <g id="Racket_and_ball">
    <g>
      <g>
        <g>
          <path class="st8" d="M117,49.5C95.8,19.2,48.8,1.3,23.4,36.3c-22.3,35.4-.2,83.9,33.8,103.2,12.3,7.3,25.5,9.8,37.4,7.9.6,0,1.2-.2,1.7-.3,9.3-1.8,17.8-6.2,24.2-13.1,0,0,0,0,0-.1.1-.1.3-.3.4-.4,0,0,0,0,0,0,0,0,0,0,.1-.1.1-.1.3-.3.4-.4,0-.1.2-.2.3-.3.2-.2.4-.4.5-.6.2-.3.4-.5.7-.8.2-.2.4-.5.6-.7,0,0,.1-.2.2-.2.2-.2.3-.4.5-.7.2-.3.4-.5.6-.8.4-.6.8-1.2,1.2-1.8,1.1-1.7,2-3.5,2.9-5.4,2.6-5.7,4.1-12.2,4.5-19.6,0-.3,0-.5,0-.8.7-18.4-5.6-36.9-16.4-51.7h0ZM114.9,57.1c10.8,16.1,16.1,39.2,10,57.7,0,0,0,.2,0,.2-.2.5-.4,1.1-.6,1.6-.7,1.9-1.6,3.8-2.6,5.6-.2.4-.5.8-.7,1.3-.6.9-1.1,1.8-1.8,2.7-.2.3-.4.6-.6.9-.1.2-.2.3-.3.4-.2.2-.3.4-.5.6-.1.2-.3.3-.4.5-.2.2-.3.4-.5.5-.6.7-1.2,1.3-1.9,2-.7.7-1.4,1.3-2.2,2-.6.5-1.2,1-1.9,1.5-.7.5-1.3,1-2,1.4-1,.6-2.1,1.3-3.1,1.8-.5.2-1,.5-1.5.7-.2.1-.4.2-.6.3-1.4.6-2.9,1.2-4.4,1.6-.2,0-.4.1-.7.2-.2,0-.5.1-.7.2-.2,0-.5.1-.7.2-.3,0-.6.1-.8.2-.2,0-.5.1-.7.2-.3,0-.6.1-.9.2-.2,0-.3,0-.5,0,0,0-.2,0-.2,0,0,0-.1,0-.2,0-.1,0-.3,0-.4,0-.9.1-1.8.2-2.7.3-.4,0-.8,0-1.2,0h0c-.4,0-.7,0-1.1,0h-1.1c-.3,0-.6,0-.9,0h-.2c-.2,0-.5,0-.8,0-.2,0-.4,0-.6,0-.1,0-.3,0-.4,0s-.2,0-.3,0c-.3,0-.6,0-.9,0-.4,0-.8,0-1.3-.1-.4,0-.8-.1-1.2-.2,0,0,0,0-.1,0,0,0-.2,0-.2,0h-.5c-.3-.1-.6-.2-.9-.2-.3,0-.6-.1-.9-.2-.4,0-.8-.2-1.3-.3,0,0,0,0,0,0-.3,0-.7-.2-1-.2,0,0,0,0,0,0-.3,0-.5-.1-.8-.2-.2,0-.4,0-.5-.1-.2,0-.4-.1-.5-.1-1.8-.5-3.5-1.1-5.3-1.8-.2,0-.5-.2-.7-.3-.2,0-.5-.2-.7-.3-.5-.2-.9-.4-1.4-.6-1-.4-1.9-.9-2.8-1.4-24.3-12.4-41.2-38.6-42.3-65.9-1.5-21.8,12.1-44.3,35.1-46.4,24.2-2.4,46.6,14,59.2,33.6h0Z"/>
          <g>
            <g>
              <rect class="st2" x="23.7" y="79.4" width="96.4" height=".4" transform="translate(-32.1 53.4) rotate(-33.8)"/>
              <rect class="st2" x="26.5" y="83.7" width="96.5" height=".4" transform="translate(-34 55.7) rotate(-33.8)"/>
              <rect class="st2" x="29.6" y="87.9" width="96" height=".4" transform="translate(-35.9 58) rotate(-33.8)"/>
              <rect class="st2" x="33" y="92.2" width="94.9" height=".4" transform="translate(-37.8 60.3) rotate(-33.8)"/>
              <rect class="st2" x="21.2" y="75.1" width="95.6" height=".4" transform="translate(-30.2 51.1) rotate(-33.8)"/>
              <rect class="st2" x="19" y="70.8" width="94.2" height=".4" transform="translate(-28.3 48.7) rotate(-33.8)"/>
              <rect class="st2" x="36.8" y="96.6" width="93" height=".4" transform="translate(-39.7 62.6) rotate(-33.8)"/>
              <rect class="st2" x="41.1" y="100.9" width="90.4" height=".4" transform="translate(-41.6 65) rotate(-33.8)"/>
              <rect class="st2" x="17.2" y="66.4" width="92" height=".4" transform="translate(-26.3 46.4) rotate(-33.8)"/>
              <rect class="st2" x="45.7" y="105.3" width="87.1" height=".4" transform="translate(-43.6 67.3) rotate(-33.8)"/>
              <rect class="st2" x="15.8" y="62" width="89.1" height=".4" transform="translate(-24.4 44) rotate(-33.8)"/>
              <rect class="st2" x="50.8" y="109.6" width="82.8" height=".4" transform="translate(-45.5 69.7) rotate(-33.8)"/>
              <rect class="st2" x="14.8" y="57.7" width="85.3" height=".4" transform="translate(-22.5 41.6) rotate(-33.8)"/>
              <rect class="st2" x="56.3" y="114" width="77.6" height=".4" transform="translate(-47.4 72.1) rotate(-33.8)"/>
              <rect class="st2" x="14.2" y="53.3" width="80.5" height=".4" transform="translate(-20.5 39.3) rotate(-33.8)"/>
              <rect class="st2" x="62.5" y="118.3" width="71" height=".4" transform="translate(-49.3 74.4) rotate(-33.8)"/>
              <rect class="st2" x="14.3" y="48.9" width="74.7" height=".4" transform="translate(-18.6 37) rotate(-33.8)"/>
              <rect class="st2" x="15" y="44.5" width="67.5" height=".4" transform="translate(-16.6 34.6) rotate(-33.8)"/>
              <rect class="st2" x="69.6" y="122.7" width="62.8" height=".4" transform="translate(-51.3 76.8) rotate(-33.8)"/>
            </g>
            <g>
              <rect class="st2" x="42.8" y="63.1" width=".4" height="80.7" transform="translate(-50.2 41.3) rotate(-33.8)"/>
              <rect class="st2" x="106" y="23.1" width=".4" height="76.3" transform="translate(-16.1 69.3) rotate(-33.8)"/>
              <rect class="st2" x="47.3" y="52.8" width=".4" height="95.2" transform="translate(-47.8 43.3) rotate(-33.8)"/>
              <rect class="st2" x="101.5" y="18.1" width=".4" height="92.1" transform="translate(-18.5 67.3) rotate(-33.8)"/>
              <rect class="st2" x="51.8" y="44.4" width=".4" height="106" transform="translate(-45.3 45.3) rotate(-33.8)"/>
              <rect class="st2" x="96.9" y="15.3" width=".4" height="103.7" transform="translate(-21 65.3) rotate(-33.8)"/>
              <rect class="st2" x="56.3" y="37.3" width=".4" height="114.1" transform="translate(-42.9 47.3) rotate(-33.8)"/>
              <rect class="st2" x="92.4" y="14" width=".4" height="112.3" transform="translate(-23.4 63.3) rotate(-33.8)"/>
              <rect class="st2" x="60.8" y="31.3" width=".4" height="120.1" transform="translate(-40.5 49.3) rotate(-33.8)"/>
              <rect class="st2" x="87.9" y="13.8" width=".4" height="118.7" transform="translate(-25.8 61.3) rotate(-33.8)"/>
              <rect class="st2" x="65.3" y="26.3" width=".4" height="124.1" transform="translate(-38 51.3) rotate(-33.8)"/>
              <rect class="st2" x="83.4" y="14.6" width=".4" height="123.3" transform="translate(-28.3 59.3) rotate(-33.8)"/>
              <rect class="st2" x="69.9" y="22" width=".4" height="126.8" transform="translate(-35.6 53.4) rotate(-33.8)"/>
              <rect class="st2" x="78.9" y="16.2" width=".4" height="126.1" transform="translate(-30.7 57.3) rotate(-33.8)"/>
              <rect class="st2" x="74.4" y="18.5" width=".4" height="127.5" transform="translate(-33.1 55.3) rotate(-33.8)"/>
            </g>
          </g>
        </g>
        <g>
          <g>
            <path class="st5" d="M128.9,121.5c-.9,1.9-1.8,3.7-2.9,5.4v2c.1,0,.7,10.4.7,10.4l.2,3.6.2,3.4-14.8,9.9-3-1.5-.8-.4-9.3-4.5-4.6-2.2c-2,.3-4.1.5-6.1.6,1.5.7,3.5,1.7,4.9,2.4,3.1,1.6,6.5,3.4,10,5.5.7.4,1.4.8,2.1,1.3,12.8,7.8,26.2,18.5,31.7,31.2.3.6.5,1.2.7,1.8l33.4,49.9c1.5,2.2,4.5,2.8,6.7,1.3l2.9-2c2.2-1.5,2.8-4.5,1.3-6.7l-33.4-49.9c-.5-.4-.9-.9-1.4-1.4-9.6-9.9-14.4-26.4-16.7-41.2-.3-1.9-.6-3.7-.8-5.5-.5-3.9-.8-7.7-1-11,0-.8-.1-1.5-.1-2.3h0ZM138.4,175.4c.8,2.1-1.8,3.7-3.4,2.2l-19.8-18.3,13.8-9.2,9.4,25.3h0Z"/>
            <path class="st3" d="M128.9,121.5c0,.7,0,1.5.1,2.3.2,3.3.6,7.1,1,11,.2,1.8.5,3.6.8,5.5,2.3,14.8,7.1,31.3,16.7,41.2.4.5.9.9,1.4,1.4l33.4,49.9c1.5,2.2.9,5.2-1.3,6.7l-2.9,2c-.4.3-.9.5-1.4.6-1.9.5-4.1-.2-5.3-2l-33.4-49.9c-.2-.6-.5-1.2-.7-1.8-5.5-12.6-18.9-23.3-31.7-31.2-.7-.4-1.4-.9-2.1-1.3-3.5-2.1-6.8-3.9-10-5.5-1.4-.7-3.4-1.7-4.9-2.4,2.1,0,4.1-.2,6.1-.6l4.6,2.2,9.3,4.5.8.4,3,1.5,14.8-9.9-.2-3.4-.2-3.6-.6-10.4v-2c.9-1.7,1.9-3.5,2.7-5.4h0M137,178.1c1.1-.3,1.9-1.4,1.4-2.7l-9.4-25.3-13.8,9.2,19.8,18.3c.6.5,1.3.7,1.9.5M129.2,121l-.4.3h-.1c0,0,0,.2,0,.2-.8,1.9-1.8,3.7-2.8,5.4h0v2.2c.1,0,.7,10.4.7,10.4l.2,3.6.2,3.2-14.6,9.7-2.9-1.4-.8-.4-9.3-4.5-4.6-2.2h0s0,0,0,0c-2,.3-4.1.5-6.1.6h-1.2s1.1.5,1.1.5c1.4.7,3.4,1.7,4.9,2.4,3.5,1.8,6.8,3.6,10,5.5.7.4,1.4.8,2.1,1.3,16.4,10,27,20.4,31.6,31,.3.6.5,1.2.7,1.8h0s0,0,0,0l33.4,49.9c1.2,1.8,3.5,2.7,5.6,2.1.5-.1,1-.4,1.5-.7l2.9-2c1.1-.8,1.9-1.9,2.2-3.3.3-1.4,0-2.7-.8-3.9l-33.4-49.9h0s0,0,0,0c-.4-.4-.9-.8-1.4-1.3-8-8.3-13.6-22.1-16.6-41.1-.3-1.9-.6-3.7-.8-5.5-.4-3.6-.8-7.3-1-11h0c0-.8-.1-1.6-.1-2.3v-.5h0,0ZM115.7,159.3l13.2-8.8,9.2,25c.2.6,0,1.1,0,1.4-.2.4-.7.8-1.2.9-.6.2-1.2,0-1.7-.4l-19.6-18.1h0Z"/>
          </g>
          <rect class="st1" x="153.5" y="176.6" width="13.2" height="69.7" rx="6.6" ry="6.6" transform="translate(-90.5 124.6) rotate(-33.8)"/>
        </g>
      </g>
      <g>
        <path class="st6" d="M51.3,103.9l-26.9,10.3c-.7.3-1,1-.7,1.7l1.9,3.4c.4.6,1.2.8,1.9.5l25-13.8c1.4-.8.3-2.7-1.2-2.2Z"/>
        <path class="st6" d="M39,83.6l-15,5.8-9.4,3.6c.7,1.5.6,3.3-.7,4.2.2.3.4.7.6,1.1l11.2-6.2,2.7-1.5,11.2-6.2c.6-.3.1-1.1-.5-.9Z"/>
        <path class="st7" d="M67.9,84l-34,14.3c-.9.4-1.3,1.4-.8,2.3l2.4,4.8c.4.9,1.5,1.2,2.4.7l31.6-19.1c1.8-1.1.4-3.8-1.5-3h0Z"/>
        <path class="st7" d="M55,104.8l-34,14.3c-.9.4-1.3,1.4-.9,2.3l2.4,4.8c.4.9,1.5,1.2,2.4.7l31.6-19.1c1.8-1.1.4-3.8-1.5-3h0Z"/>
        <path class="st7" d="M46.2,84.7l-14.2,8.6-3.4,2.1-19.2,11.6-2.7,1.6-4.8,2.9c-.3.2-.8,0-1-.3l-.5-1.1c.2-1,.4-2,.8-3,.8-2.3,1.9-4.5,3.2-6.3l22.1-9.3,19-8c.8-.3,1.3.8.6,1.2Z"/>
        <path class="st6" d="M60.5,85.3l-26.9,10.3c-.7.3-1,1-.7,1.7l1.9,3.4c.3.6,1.2.8,1.9.5l25-13.8c1.4-.8.3-2.7-1.2-2.2Z"/>
        <g>
          <path class="st3" d="M42.5,125.1c-6.3,12.9-22.7,17.3-34.1,7.9-6.7-5.5-9.5-14.4-7.9-22.8.2-1,.4-2,.8-3,.8-2.3,1.8-4.5,3.2-6.3,5-7,13.6-10.8,22.1-9.3,1.5.3,3,.7,4.5,1.3l1,.5,1.8.9c.4,0,2.4,1.6,2.8,1.9,5.1,4.2,8.4,11,8.3,17.7v1.9c0,3.3-1.1,6.4-2.5,9.4h0Z"/>
          <path class="st0" d="M42.5,125.1c-6.3,12.9-22.7,17.3-34.1,7.9-7.5-6.2-10.1-16.6-7.1-25.8,2,.7,3.7,2.1,5.3,3.4l2.2,2.3c.6.5,1.1,1.2,1.6,1.8,1.3,1.6,2.4,3.6,3.2,5.4l1.3,2.9c1.5,4.5.9,12.3,8.1,9.1,3.4-1.5,6.5-4.2,9.6-6.2,2.8-1.7,7.3-4.3,9.8-.9h0Z"/>
          <path class="st6" d="M44.9,115.7c-4.5,0-8.7,1.1-12.8,3-5.9,2.8-10.3,6.8-17.3,4.2-5-1.8-8.5-7-8.3-12.4.4-9.7,10.9-13.8,18.7-16.4l5.8-1.4,2.8,1.4c-.3,0-.6.3-.9.4-1.2.4-3,.5-4.4.8-8.2,1.9-21.5,7-19.7,17.5.5,3.2,2.1,5.5,4.8,7.2,7.2,4.5,12.4-.8,18.8-3.6,3.9-1.7,8.3-2.7,12.6-2.6v1.9s0,0,0,0Z"/>
        </g>
      </g>
    </g>
  </g>
  <g id="Text">
    <g>
      <g>
        <path class="st4" d="M154.8,3.9h62.3v17.6h-22.5v74.8h-18.2V21.5h-21.6V3.9Z"/>
        <path class="st4" d="M234.6,3.9h63v17.6h-44.8v19.7h39.7v17.6h-39.7v20h46.6v17.6h-64.8V3.9h0Z"/>
        <polygon class="st4" points="401.4 3.9 401.4 100.1 400.9 100.1 336.3 41.7 336.6 96.3 318.2 96.3 318.2 .2 318.9 .2 383.4 59.6 383.1 3.9 401.4 3.9"/>
        <polygon class="st4" points="508.5 3.9 508.5 100.1 508 100.1 443.3 41.7 443.7 96.3 425.2 96.3 425.2 .2 426 .2 490.5 59.6 490.1 3.9 508.5 3.9"/>
        <path class="st4" d="M532.3,3.9h18.2v92.4h-18.2V3.9Z"/>
        <path class="st4" d="M623.7,26.2c-3.5-1.9-7.1-3.5-10.7-4.8-3.6-1.3-7-1.9-10.2-1.9s-7,.8-9.3,2.4c-2.3,1.6-3.4,4-3.4,7.2s.9,4.1,2.6,5.8,3.9,3.2,6.7,4.6c2.7,1.3,5.5,2.5,8.5,3.6,2.7,1,5.3,2.2,8,3.6,2.6,1.4,5,3.1,7.1,5.2,2.1,2,3.8,4.6,5,7.7s1.9,6.8,1.9,11.2-1.2,9-3.6,13.1c-2.4,4-6,7.3-10.7,9.7s-10.5,3.7-17.3,3.7-7.1-.4-10.7-1.1c-3.6-.7-7.2-1.8-10.7-3.3s-6.9-3.3-10.2-5.6l8-14.2c2.2,1.6,4.5,3,7.1,4.2,2.5,1.2,5.1,2.2,7.7,2.8,2.6.7,5,1,7.2,1s4.4-.3,6.6-.9c2.2-.6,4.1-1.7,5.5-3.2,1.5-1.5,2.2-3.6,2.2-6.3s-.6-3.5-1.8-5c-1.2-1.5-2.8-2.9-4.9-4.1-2-1.3-4.3-2.3-6.7-3.3-2.8-1.1-5.8-2.3-8.8-3.8-3-1.4-5.8-3.2-8.5-5.2-2.6-2-4.8-4.6-6.4-7.7-1.6-3-2.5-6.8-2.5-11.2s1.2-10,3.6-13.9c2.4-3.9,5.8-7.1,10.1-9.4,4.3-2.3,9.4-3.6,15.1-3.8,7.5,0,13.5.9,18.1,2.6s8.8,3.8,12.5,6.3l-6.9,13.9h0Z"/>
      </g>
      <g>
        <path class="st4" d="M280.4,205.7c-2.7-3-6.1-5.5-10.2-7.4,2.7-1.7,5-3.8,6.8-6.2,2.8-3.8,4.2-8.6,4.2-14.2s-2.8-13.5-8.5-17.4-13.4-5.8-23-5.8h-27.1v92.4h30.8c4.1,0,8.1-.5,11.9-1.4s7.3-2.5,10.4-4.6c3-2.1,5.5-4.9,7.3-8.4,1.8-3.5,2.7-7.7,2.7-12.8s-1.7-10.1-5.1-14h0ZM240.8,172.1h9.8c3.6,0,6.5.8,8.6,2.4,2.1,1.6,3.2,4,3.2,7.2s-.9,5.2-2.6,7.4c-1.7,2.2-4.4,3.3-8,3.3h-11.1v-20.2h0ZM264.9,225.5c-1.3,1.6-3,2.7-5.1,3.4-2.2.7-4.6,1.1-7.3,1.1h-11.7v-20.1h10.4c2.6,0,5.1.3,7.5.8,2.4.6,4.3,1.5,5.8,2.9s2.3,3.4,2.3,6.1-.6,4.3-1.9,5.8h0Z"/>
        <path class="st4" d="M298.1,200.9c0-6.4,1.2-12.4,3.6-18.1,2.4-5.7,5.8-10.7,10.1-15.1,4.3-4.4,9.3-7.9,15-10.4s11.8-3.8,18.3-3.8,12.5,1.3,18.2,3.8c5.7,2.5,10.7,6,15.1,10.4,4.4,4.4,7.8,9.4,10.3,15.1s3.7,11.7,3.7,18.1-1.2,12.6-3.7,18.3c-2.5,5.7-5.9,10.7-10.3,15s-9.4,7.7-15.1,10.1c-5.7,2.4-11.8,3.6-18.2,3.6s-12.6-1.2-18.3-3.6c-5.7-2.4-10.7-5.8-15-10.1-4.3-4.3-7.7-9.3-10.1-15s-3.6-11.8-3.6-18.3ZM317,200.9c0,4.1.7,7.9,2.2,11.5,1.5,3.6,3.5,6.7,6.1,9.4,2.6,2.7,5.7,4.8,9.2,6.3s7.3,2.3,11.4,2.3,7.6-.8,11-2.3,6.3-3.6,8.9-6.3,4.5-5.9,5.9-9.4c1.4-3.6,2.1-7.4,2.1-11.5s-.7-8.1-2.2-11.7c-1.5-3.6-3.5-6.8-6-9.5-2.5-2.7-5.5-4.8-9-6.3-3.4-1.5-7.2-2.3-11.2-2.3s-7.7.8-11.2,2.3c-3.4,1.5-6.5,3.6-9,6.3s-4.6,5.9-6,9.5c-1.4,3.6-2.1,7.5-2.1,11.7h0Z"/>
        <polygon class="st4" points="505.9 150.8 505.9 246.9 487.7 246.9 487.7 202.8 457.5 245.7 457.3 245.7 428.3 205.6 428.3 246.9 410.7 246.9 410.7 150.8 410.8 150.8 457.7 217.2 505.6 150.8 505.9 150.8"/>
        <path class="st4" d="M587.6,205.7c-2.7-3-6.1-5.5-10.2-7.4,2.7-1.7,5-3.7,6.8-6.2,2.8-3.8,4.2-8.6,4.2-14.2s-2.8-13.5-8.5-17.4-13.3-5.8-23-5.8h-27.1v92.4h30.8c4.1,0,8.1-.5,11.9-1.4,3.8-1,7.3-2.5,10.3-4.6,3.1-2.1,5.5-4.9,7.3-8.4,1.8-3.5,2.7-7.7,2.7-12.8s-1.7-10.1-5.2-14h0ZM547.9,172.1h9.8c3.6,0,6.5.8,8.6,2.4,2.1,1.6,3.2,4,3.2,7.2s-.9,5.2-2.6,7.4c-1.7,2.2-4.4,3.3-8,3.3h-11v-20.2ZM572,225.5c-1.3,1.6-3,2.7-5.2,3.4-2.2.7-4.6,1.1-7.3,1.1h-11.7v-20.1h10.4c2.6,0,5.1.3,7.5.8,2.4.6,4.3,1.5,5.8,2.9,1.5,1.4,2.3,3.4,2.3,6.1s-.6,4.3-1.9,5.8h0Z"/>
      </g>
    </g>
  </g>
</svg>